<svg width="105" height="36" viewBox="0 0 105 36" fill="none"
  xmlns="http://www.w3.org/2000/svg">
  <g clip-path="url(#clip0_924_6549)">
    <path d="M96.6385 0.860099H8.36627C8.0445 0.860099 7.7266 0.860099 7.40569 0.861849C7.13705 0.863599 6.87056 0.868683 6.59935 0.872962C6.01015 0.879876 5.42234 0.931566 4.84101 1.02758C4.26051 1.12569 3.69819 1.31065 3.17308 1.57621C2.6486 1.84401 2.16937 2.192 1.75278 2.60754C1.334 3.02191 0.984912 3.50086 0.718944 4.02599C0.452241 4.55007 0.267309 5.11167 0.170534 5.69139C0.0728385 6.27039 0.0202678 6.85605 0.0132935 7.44314C0.00515067 7.71142 0.00429076 7.98059 0 8.2489V28.4739C0.00429076 28.7456 0.00515067 29.0088 0.0132935 29.2805C0.02027 29.8676 0.0728406 30.4532 0.170534 31.0322C0.267042 31.6123 0.451985 32.1742 0.718944 32.6985C0.984792 33.2219 1.33393 33.6989 1.75278 34.111C2.1678 34.5284 2.64733 34.8766 3.17308 35.1423C3.69819 35.4086 4.26045 35.5947 4.84101 35.6943C5.42243 35.7895 6.01019 35.8412 6.59935 35.849C6.87056 35.8549 7.13705 35.8583 7.40569 35.8583C7.72659 35.8601 8.04452 35.8601 8.36627 35.8601H96.6385C96.9538 35.8601 97.2743 35.8601 97.5896 35.8583C97.857 35.8583 98.1312 35.8549 98.3985 35.849C98.9866 35.8417 99.5732 35.7899 100.153 35.6943C100.736 35.594 101.3 35.408 101.828 35.1423C102.353 34.8764 102.832 34.5282 103.247 34.111C103.665 33.6973 104.014 33.2206 104.284 32.6985C104.549 32.1738 104.732 31.6119 104.827 31.0322C104.925 30.4532 104.979 29.8676 104.99 29.2805C104.993 29.0088 104.993 28.7456 104.993 28.4739C105 28.156 105 27.8398 105 27.5168V9.20421C105 8.88378 105 8.56591 104.993 8.2489C104.993 7.98059 104.993 7.71142 104.99 7.44311C104.979 6.85597 104.925 6.27043 104.827 5.69136C104.732 5.11197 104.548 4.55041 104.284 4.02595C103.742 2.9734 102.883 2.11662 101.828 1.57613C101.3 1.31122 100.736 1.12631 100.153 1.0275C99.5733 0.931064 98.9866 0.879356 98.3985 0.872839C98.1312 0.868569 97.857 0.863442 97.5896 0.861735C97.2743 0.859985 96.9538 0.860099 96.6385 0.860099Z" fill="#A8B1BD"/>
    <path d="M7.40957 35.0944C7.14222 35.0944 6.88134 35.0909 6.61609 35.085C6.06661 35.0779 5.51842 35.0302 4.976 34.9423C4.47023 34.8554 3.98027 34.6938 3.52229 34.4629C3.0685 34.2338 2.65461 33.9335 2.29648 33.5733C1.93316 33.2175 1.63068 32.8047 1.40103 32.3514C1.16884 31.8952 1.00816 31.4061 0.924567 30.9014C0.834299 30.359 0.785459 29.8105 0.778471 29.2607C0.772908 29.0762 0.765625 28.4618 0.765625 28.4618V8.24878C0.765625 8.24878 0.773382 7.6438 0.778515 7.46606C0.785206 6.91716 0.833761 6.36956 0.92376 5.828C1.0075 5.32183 1.16831 4.83139 1.40062 4.37366C1.62943 3.92069 1.93023 3.50761 2.29136 3.15046C2.65209 2.7899 3.0673 2.48801 3.52186 2.25579C3.97879 2.02557 4.46782 1.86513 4.97257 1.77985C5.51677 1.69109 6.06687 1.64311 6.61825 1.63629L7.41 1.62561H97.5849L98.3861 1.63672C98.9325 1.6432 99.4776 1.69075 100.017 1.77899C100.527 1.86534 101.021 2.0269 101.483 2.25836C102.394 2.72635 103.135 3.46675 103.602 4.3758C103.831 4.83037 103.989 5.3168 104.072 5.8186C104.163 6.3646 104.214 6.91651 104.224 7.46991C104.227 7.71771 104.227 7.98388 104.227 8.24878C104.234 8.57691 104.234 8.88922 104.234 9.2041V27.5167C104.234 27.8346 104.234 28.1448 104.227 28.4575C104.227 28.742 104.227 29.0027 104.223 29.271C104.213 29.8145 104.163 30.3566 104.073 30.8928C103.991 31.4012 103.832 31.8941 103.599 32.354C103.368 32.8024 103.067 33.2116 102.708 33.5665C102.35 33.9286 101.935 34.2307 101.48 34.4612C101.02 34.694 100.526 34.8561 100.017 34.9423C99.4744 35.0306 98.9262 35.0783 98.3766 35.085C98.1196 35.0909 97.8505 35.0944 97.5892 35.0944L96.638 35.0961L7.40957 35.0944Z" fill="black"/>
    <path d="M21.734 18.6231C21.7434 17.8928 21.938 17.1767 22.2995 16.5415C22.661 15.9063 23.1778 15.3726 23.8018 14.9901C23.4054 14.4256 22.8825 13.961 22.2746 13.6333C21.6666 13.3055 20.9904 13.1237 20.2997 13.1021C18.8262 12.9479 17.3978 13.9813 16.6469 13.9813C15.8816 13.9813 14.7255 13.1174 13.4806 13.143C12.6754 13.1689 11.8907 13.4024 11.2029 13.8207C10.515 14.239 9.9476 14.8279 9.55585 15.5299C7.85885 18.4597 9.12466 22.7656 10.7502 25.1339C11.5636 26.2936 12.5141 27.589 13.7578 27.5431C14.9749 27.4927 15.4295 26.7691 16.8986 26.7691C18.3541 26.7691 18.7806 27.5431 20.0496 27.5139C21.3555 27.4927 22.1784 26.349 22.9632 25.1784C23.5475 24.352 23.9972 23.4388 24.2955 22.4724C23.5368 22.1524 22.8893 21.6167 22.4338 20.9322C21.9783 20.2477 21.7349 19.4447 21.734 18.6231Z" fill="white"/>
    <path d="M19.337 11.5445C20.0491 10.6921 20.3999 9.59644 20.3149 8.49023C19.227 8.60418 18.2221 9.12267 17.5004 9.94239C17.1476 10.3429 16.8773 10.8087 16.7051 11.3134C16.5329 11.8181 16.4622 12.3516 16.4969 12.8836C17.041 12.8892 17.5793 12.7716 18.0713 12.5396C18.5633 12.3077 18.996 11.9674 19.337 11.5445Z" fill="white"/>
    <path d="M37.119 24.6072H32.9656L31.9682 27.5441H30.209L34.143 16.6783H35.9707L39.9047 27.5441H38.1155L37.119 24.6072ZM33.3958 23.252H36.688L35.065 18.4856H35.0196L33.3958 23.252Z" fill="white"/>
    <path d="M48.4012 23.5836C48.4012 26.0454 47.0799 27.6271 45.0859 27.6271C44.5808 27.6534 44.0785 27.5374 43.6364 27.2923C43.1943 27.0472 42.8304 26.6829 42.5864 26.2411H42.5486V30.1649H40.918V19.6222H42.4964V20.9398H42.5264C42.7817 20.5002 43.1517 20.1377 43.5972 19.8911C44.0426 19.6445 44.5467 19.5229 45.0559 19.5393C47.0722 19.5393 48.4012 21.1287 48.4012 23.5836ZM46.7251 23.5836C46.7251 21.9797 45.894 20.9253 44.6258 20.9253C43.3798 20.9253 42.5418 22.002 42.5418 23.5836C42.5418 25.1798 43.3798 26.2488 44.6258 26.2488C45.894 26.2488 46.7251 25.202 46.7251 23.5836Z" fill="white"/>
    <path d="M57.1444 23.5835C57.1444 26.0453 55.8231 27.6269 53.8291 27.6269C53.324 27.6533 52.8216 27.5373 52.3796 27.2921C51.9375 27.047 51.5736 26.6827 51.3295 26.2409H51.2918V30.1648H49.6611V19.6221H51.2395V20.9397H51.2695C51.5248 20.5 51.8949 20.1376 52.3403 19.891C52.7857 19.6444 53.2898 19.5228 53.7991 19.5392C55.8153 19.5392 57.1444 21.1285 57.1444 23.5835ZM55.4683 23.5835C55.4683 21.9796 54.6371 20.9252 53.3689 20.9252C52.123 20.9252 51.285 22.0018 51.285 23.5835C51.285 25.1797 52.123 26.2487 53.3689 26.2487C54.6371 26.2487 55.4683 25.2019 55.4683 23.5835Z" fill="white"/>
    <path d="M62.9232 24.5166C63.044 25.5942 64.0937 26.3016 65.5281 26.3016C66.9026 26.3016 67.8914 25.5941 67.8914 24.6226C67.8914 23.7792 67.295 23.2742 65.8829 22.9281L64.4707 22.5889C62.4699 22.1069 61.541 21.1738 61.541 19.6597C61.541 17.7849 63.1794 16.4972 65.5058 16.4972C67.8083 16.4972 69.3867 17.7849 69.4398 19.6597H67.7937C67.6952 18.5753 66.7963 17.9208 65.4827 17.9208C64.1691 17.9208 63.2702 18.583 63.2702 19.5469C63.2702 20.3151 63.8443 20.7671 65.2487 21.1131L66.4492 21.4071C68.6849 21.9343 69.6137 22.8298 69.6137 24.4192C69.6137 26.452 67.9899 27.7252 65.4073 27.7252C62.9908 27.7252 61.3593 26.4819 61.2539 24.5166L62.9232 24.5166Z" fill="white"/>
    <path d="M73.1333 17.7473V19.6221H74.644V20.9098H73.1333V25.2771C73.1333 25.9556 73.4358 26.2717 74.0999 26.2717C74.2792 26.2686 74.4583 26.2561 74.6363 26.2341V27.5141C74.3377 27.5698 74.0342 27.595 73.7306 27.5893C72.1222 27.5893 71.4949 26.9869 71.4949 25.4505V20.9098H70.3398V19.6221H71.4949V17.7473H73.1333Z" fill="white"/>
    <path d="M75.5186 23.5835C75.5186 21.0909 76.9907 19.5247 79.2863 19.5247C81.5896 19.5247 83.0549 21.0909 83.0549 23.5835C83.0549 26.0829 81.5973 27.6423 79.2863 27.6423C76.9761 27.6423 75.5186 26.0829 75.5186 23.5835ZM81.3934 23.5835C81.3934 21.8737 80.6076 20.8645 79.2863 20.8645C77.965 20.8645 77.1801 21.8813 77.1801 23.5835C77.1801 25.3002 77.965 26.3016 79.2863 26.3016C80.6076 26.3016 81.3934 25.3002 81.3934 23.5835Z" fill="white"/>
    <path d="M84.3994 19.6221H85.9547V20.9705H85.9924C86.0976 20.5494 86.345 20.1772 86.693 19.9166C87.041 19.6559 87.4684 19.5227 87.9033 19.5392C88.0912 19.5386 88.2786 19.5589 88.462 19.5999V21.1209C88.2247 21.0486 87.9773 21.0154 87.7293 21.0226C87.4924 21.013 87.2562 21.0547 87.037 21.1447C86.8178 21.2347 86.6207 21.371 86.4593 21.5442C86.2978 21.7173 86.1759 21.9233 86.1018 22.1478C86.0277 22.3724 86.0032 22.6103 86.0301 22.8452V27.5441H84.3994L84.3994 19.6221Z" fill="white"/>
    <path d="M95.9806 25.2173C95.7613 26.6554 94.3568 27.6423 92.5599 27.6423C90.2489 27.6423 88.8145 26.0983 88.8145 23.6211C88.8145 21.1362 90.2566 19.5247 92.4914 19.5247C94.6893 19.5247 96.0715 21.0303 96.0715 23.4322V23.9894H90.4605V24.0876C90.4347 24.3792 90.4713 24.6729 90.5679 24.9493C90.6646 25.2256 90.8191 25.4783 91.0213 25.6905C91.2234 25.9028 91.4685 26.0697 91.7403 26.1802C92.0121 26.2907 92.3043 26.3423 92.5976 26.3315C92.983 26.3675 93.3697 26.2785 93.7002 26.0778C94.0308 25.877 94.2875 25.5752 94.4322 25.2173L95.9806 25.2173ZM90.4683 22.8529H94.4399C94.4546 22.5908 94.4147 22.3284 94.3229 22.0824C94.231 21.8363 94.0892 21.6118 93.9062 21.423C93.7232 21.2342 93.5031 21.0852 93.2596 20.9853C93.0162 20.8853 92.7546 20.8366 92.4914 20.8423C92.2258 20.8407 91.9626 20.8916 91.7169 20.992C91.4711 21.0924 91.2478 21.2403 91.0597 21.4272C90.8716 21.6142 90.7225 21.8364 90.621 22.0811C90.5195 22.3258 90.4676 22.5881 90.4683 22.8529Z" fill="white"/>
    <path d="M33.191 8.49958C33.5328 8.47511 33.8759 8.52662 34.1954 8.65037C34.5149 8.77412 34.8028 8.96704 35.0385 9.21521C35.2742 9.46339 35.4517 9.76062 35.5582 10.0855C35.6647 10.4103 35.6976 10.7547 35.6545 11.0938C35.6545 12.7618 34.7505 13.7206 33.191 13.7206H31.2998V8.49958H33.191ZM32.113 12.9822H33.1001C33.3444 12.9968 33.5889 12.9568 33.8157 12.8653C34.0426 12.7737 34.2461 12.6329 34.4115 12.453C34.5769 12.2732 34.7 12.0588 34.7718 11.8255C34.8437 11.5922 34.8624 11.3459 34.8268 11.1045C34.8598 10.864 34.8392 10.6192 34.7662 10.3876C34.6933 10.156 34.5699 9.94338 34.4049 9.76494C34.2399 9.5865 34.0373 9.44667 33.8118 9.35547C33.5862 9.26426 33.3432 9.22394 33.1001 9.23739H32.113V12.9822Z" fill="white"/>
    <path d="M36.5733 11.7487C36.5484 11.4897 36.5781 11.2285 36.6605 10.9817C36.7428 10.7349 36.876 10.508 37.0514 10.3155C37.2269 10.123 37.4407 9.96919 37.6792 9.86395C37.9178 9.75871 38.1757 9.70435 38.4366 9.70435C38.6974 9.70435 38.9554 9.75871 39.1939 9.86395C39.4325 9.96919 39.6463 10.123 39.8217 10.3155C39.9972 10.508 40.1303 10.7349 40.2127 10.9817C40.295 11.2285 40.3247 11.4897 40.2999 11.7487C40.3252 12.0079 40.2958 12.2695 40.2137 12.5167C40.1316 12.7639 39.9985 12.9912 39.823 13.1841C39.6476 13.377 39.4335 13.5311 39.1948 13.6365C38.956 13.742 38.6977 13.7965 38.4366 13.7965C38.1754 13.7965 37.9172 13.742 37.6784 13.6365C37.4396 13.5311 37.2256 13.377 37.0501 13.1841C36.8746 12.9912 36.7416 12.7639 36.6594 12.5167C36.5773 12.2695 36.548 12.0079 36.5733 11.7487ZM39.4978 11.7487C39.4978 10.8946 39.1131 10.3952 38.4379 10.3952C37.7601 10.3952 37.3788 10.8946 37.3788 11.7487C37.3788 12.6096 37.7601 13.1052 38.4379 13.1052C39.1131 13.1052 39.4978 12.6062 39.4978 11.7487Z" fill="white"/>
    <path d="M45.253 13.7205H44.4441L43.6275 10.8186H43.5658L42.7526 13.7205H41.9514L40.8623 9.7804H41.6532L42.361 12.7869H42.4193L43.2316 9.7804H43.9797L44.792 12.7869H44.8537L45.5581 9.7804H46.3378L45.253 13.7205Z" fill="white"/>
    <path d="M47.2539 9.78037H48.0045V10.4063H48.0628C48.1617 10.1815 48.3284 9.99303 48.5397 9.8672C48.7511 9.74137 48.9965 9.68443 49.2419 9.70432C49.4341 9.6899 49.6272 9.71881 49.8067 9.78889C49.9862 9.85898 50.1476 9.96844 50.279 10.1092C50.4103 10.2499 50.5082 10.4183 50.5654 10.6019C50.6227 10.7855 50.6377 10.9796 50.6095 11.1698V13.7204H49.8297V11.365C49.8297 10.7319 49.5538 10.417 48.9771 10.417C48.8466 10.4109 48.7163 10.4331 48.5951 10.4819C48.474 10.5308 48.3649 10.6052 48.2753 10.7C48.1857 10.7948 48.1177 10.9079 48.076 11.0314C48.0343 11.1548 48.0198 11.2859 48.0337 11.4154V13.7204H47.2539L47.2539 9.78037Z" fill="white"/>
    <path d="M51.8525 8.24231H52.6323V13.7205H51.8525V8.24231Z" fill="white"/>
    <path d="M53.7158 11.7487C53.691 11.4898 53.7207 11.2285 53.8031 10.9817C53.8854 10.7349 54.0186 10.508 54.1941 10.3155C54.3695 10.123 54.5834 9.9692 54.822 9.86395C55.0605 9.75871 55.3185 9.70435 55.5794 9.70435C55.8402 9.70435 56.0982 9.75871 56.3367 9.86395C56.5753 9.9692 56.7892 10.123 56.9646 10.3155C57.1401 10.508 57.2732 10.7349 57.3556 10.9817C57.438 11.2285 57.4677 11.4898 57.4429 11.7487C57.4682 12.008 57.4388 12.2696 57.3566 12.5168C57.2745 12.764 57.1414 12.9913 56.9659 13.1842C56.7904 13.377 56.5763 13.5311 56.3376 13.6366C56.0988 13.7421 55.8405 13.7966 55.5794 13.7966C55.3182 13.7966 55.0599 13.7421 54.8211 13.6366C54.5823 13.5311 54.3683 13.377 54.1928 13.1842C54.0173 12.9913 53.8842 12.764 53.8021 12.5168C53.7199 12.2696 53.6905 12.008 53.7158 11.7487ZM56.6404 11.7487C56.6404 10.8947 56.2556 10.3952 55.5804 10.3952C54.9026 10.3952 54.5213 10.8947 54.5213 11.7488C54.5213 12.6097 54.9026 13.1053 55.5804 13.1053C56.2556 13.1053 56.6404 12.6062 56.6404 11.7487Z" fill="white"/>
    <path d="M58.2637 12.6062C58.2637 11.897 58.7932 11.4881 59.7332 11.43L60.8035 11.3685V11.0284C60.8035 10.6122 60.5276 10.3773 59.9946 10.3773C59.5593 10.3773 59.2577 10.5366 59.1711 10.8152H58.4162C58.4959 10.1384 59.1343 9.70435 60.0306 9.70435C61.0212 9.70435 61.5798 10.1961 61.5798 11.0284V13.7205H60.8292V13.1667H60.7675C60.6423 13.3654 60.4664 13.5273 60.2579 13.636C60.0494 13.7447 59.8157 13.7962 59.5807 13.7854C59.4148 13.8026 59.2472 13.7849 59.0886 13.7336C58.93 13.6822 58.7839 13.5983 58.6598 13.4872C58.5357 13.3761 58.4364 13.2403 58.3682 13.0885C58.2999 12.9368 58.2643 12.7725 58.2637 12.6062ZM60.8035 12.2695V11.9401L59.8386 12.0016C59.2945 12.038 59.0477 12.2225 59.0477 12.5699C59.0477 12.9245 59.3562 13.1308 59.7804 13.1308C59.9047 13.1434 60.0302 13.1309 60.1496 13.094C60.2689 13.0572 60.3796 12.9968 60.4751 12.9165C60.5705 12.8361 60.6488 12.7374 60.7052 12.6263C60.7616 12.5151 60.7951 12.3938 60.8035 12.2695Z" fill="white"/>
    <path d="M62.6055 11.7487C62.6055 10.5037 63.2473 9.71504 64.2456 9.71504C64.4925 9.70369 64.7376 9.76267 64.9521 9.88508C65.1667 10.0075 65.3419 10.1883 65.4572 10.4063H65.5155V8.24231H66.2952V13.7205H65.548V13.098H65.4863C65.3621 13.3145 65.1808 13.493 64.9621 13.6142C64.7434 13.7354 64.4956 13.7946 64.2456 13.7854C63.2404 13.7854 62.6055 12.9967 62.6055 11.7487ZM63.411 11.7487C63.411 12.5844 63.806 13.0873 64.4667 13.0873C65.1239 13.0873 65.5301 12.5772 65.5301 11.7522C65.5301 10.931 65.1196 10.4136 64.4667 10.4136C63.8103 10.4136 63.411 10.9199 63.411 11.7487Z" fill="white"/>
    <path d="M69.5205 11.7487C69.4957 11.4897 69.5254 11.2285 69.6077 10.9817C69.6901 10.7349 69.8232 10.508 69.9987 10.3155C70.1741 10.123 70.388 9.96919 70.6265 9.86395C70.865 9.75871 71.123 9.70435 71.3838 9.70435C71.6447 9.70435 71.9026 9.75871 72.1412 9.86395C72.3797 9.96919 72.5936 10.123 72.769 10.3155C72.9444 10.508 73.0776 10.7349 73.1599 10.9817C73.2423 11.2285 73.272 11.4897 73.2472 11.7487C73.2725 12.0079 73.2431 12.2695 73.161 12.5167C73.0789 12.7639 72.9458 12.9912 72.7703 13.1841C72.5948 13.377 72.3808 13.5311 72.142 13.6365C71.9033 13.742 71.645 13.7965 71.3838 13.7965C71.1227 13.7965 70.8644 13.742 70.6256 13.6365C70.3869 13.5311 70.1729 13.377 69.9974 13.1841C69.8219 12.9912 69.6888 12.7639 69.6067 12.5167C69.5246 12.2695 69.4952 12.0079 69.5205 11.7487ZM72.4451 11.7487C72.4451 10.8946 72.0603 10.3952 71.3851 10.3952C70.7073 10.3952 70.326 10.8946 70.326 11.7487C70.326 12.6096 70.7074 13.1052 71.3851 13.1052C72.0604 13.1052 72.4451 12.6062 72.4451 11.7487Z" fill="white"/>
    <path d="M74.2939 9.78037H75.0446V10.4063H75.1029C75.2017 10.1815 75.3684 9.99303 75.5798 9.8672C75.7911 9.74137 76.0366 9.68443 76.2819 9.70432C76.4742 9.6899 76.6672 9.71881 76.8468 9.78889C77.0263 9.85898 77.1877 9.96844 77.319 10.1092C77.4504 10.2499 77.5483 10.4183 77.6055 10.6019C77.6627 10.7855 77.6777 10.9796 77.6495 11.1698V13.7204H76.8698V11.365C76.8698 10.7319 76.5939 10.417 76.0172 10.417C75.8866 10.4109 75.7563 10.4331 75.6352 10.4819C75.514 10.5308 75.4049 10.6052 75.3153 10.7C75.2257 10.7948 75.1577 10.9079 75.116 11.0314C75.0743 11.1548 75.0599 11.2859 75.0737 11.4154V13.7204H74.2939V9.78037Z" fill="white"/>
    <path d="M82.0553 8.79944V9.79834H82.9114V10.4533H82.0553V12.4793C82.0553 12.892 82.2259 13.0728 82.614 13.0728C82.7134 13.0724 82.8127 13.0664 82.9114 13.0548V13.7025C82.7713 13.7275 82.6295 13.7408 82.4872 13.7422C81.62 13.7422 81.2747 13.438 81.2747 12.6784V10.4533H80.6475V9.7983H81.2747V8.79944H82.0553Z" fill="white"/>
    <path d="M83.9766 8.24231H84.7495V10.4136H84.8112C84.9148 10.1867 85.0861 9.99716 85.3017 9.87085C85.5173 9.74455 85.7667 9.6876 86.0159 9.70777C86.2072 9.69739 86.3984 9.72923 86.5758 9.80102C86.7533 9.8728 86.9128 9.98277 87.0427 10.1231C87.1727 10.2634 87.27 10.4305 87.3277 10.6126C87.3855 10.7948 87.4022 10.9873 87.3767 11.1766V13.7205H86.5961V11.3685C86.5961 10.7391 86.3022 10.4204 85.7512 10.4204C85.6172 10.4094 85.4824 10.4278 85.3562 10.4742C85.2301 10.5207 85.1156 10.594 85.0209 10.6892C84.9261 10.7843 84.8533 10.8989 84.8076 11.0251C84.762 11.1512 84.7445 11.2857 84.7564 11.4193V13.7204H83.9766L83.9766 8.24231Z" fill="white"/>
    <path d="M91.9232 12.6567C91.8173 13.0168 91.5878 13.3283 91.2748 13.5366C90.9618 13.745 90.5853 13.837 90.2112 13.7966C89.9509 13.8034 89.6922 13.7537 89.4531 13.6509C89.214 13.548 89.0002 13.3945 88.8265 13.201C88.6528 13.0075 88.5235 12.7787 88.4474 12.5303C88.3714 12.282 88.3504 12.0201 88.386 11.7629C88.3513 11.5049 88.3727 11.2424 88.4485 10.9933C88.5244 10.7442 88.6531 10.5143 88.8259 10.3191C88.9986 10.1239 89.2114 9.96804 89.4498 9.86199C89.6882 9.75593 89.9467 9.70219 90.2077 9.70441C91.3071 9.70441 91.9704 10.4534 91.9704 11.6907V11.962H89.1803V12.0056C89.1681 12.1502 89.1863 12.2957 89.2338 12.4329C89.2813 12.57 89.357 12.6958 89.4561 12.802C89.5552 12.9083 89.6754 12.9928 89.8091 13.05C89.9429 13.1072 90.0871 13.1359 90.2326 13.1343C90.4191 13.1566 90.6081 13.1232 90.7755 13.0381C90.9428 12.953 91.0811 12.8203 91.1726 12.6567L91.9232 12.6567ZM89.1803 11.3869H91.176C91.1858 11.2547 91.1678 11.1218 91.1231 10.997C91.0784 10.8721 91.008 10.7579 90.9164 10.6618C90.8248 10.5657 90.714 10.4897 90.5913 10.4388C90.4685 10.3879 90.3364 10.3632 90.2034 10.3662C90.0686 10.3645 89.9347 10.3898 89.8098 10.4405C89.6849 10.4912 89.5714 10.5663 89.4761 10.6614C89.3807 10.7566 89.3054 10.8698 89.2546 10.9943C89.2038 11.1189 89.1785 11.2524 89.1803 11.3869Z" fill="white"/>
  </g>
  <defs>
    <clipPath id="clip0_924_6549">
      <rect width="105" height="35" fill="white" transform="translate(0 0.859985)"/>
    </clipPath>
  </defs>
</svg>
