<svg width="61" height="30" viewBox="0 0 61 30" fill="none"
  xmlns="http://www.w3.org/2000/svg">
  <g clip-path="url(#clip0_727_5593)">
    <path d="M15.4652 30C10.9353 30 6.40525 30 1.87527 30C0.765108 30 0.484375 29.7149 0.484375 28.5963C0.484375 24.5165 0.484375 20.4368 0.484375 16.3571C0.484375 15.285 0.777868 14.9957 1.84975 14.9957C10.4036 14.9957 18.9574 14.9957 27.5112 14.9957C29.4722 14.9957 30.4887 13.979 30.493 12.0051C30.493 8.43166 30.493 4.8582 30.493 1.28049C30.493 0.336074 30.8162 0 31.7605 0C40.9013 0 50.0379 0 59.1785 0C60.1442 0 60.4845 0.353091 60.4845 1.32303C60.4845 5.441 60.4845 9.56326 60.4845 13.6812C60.4845 14.6937 60.1653 15.0128 59.1445 15.0128C50.5525 15.0128 41.9562 15.0128 33.3639 15.0128C31.5179 15.0128 30.5099 16.0125 30.5099 17.8417C30.5099 21.4152 30.5099 24.9887 30.5099 28.5664C30.5099 29.6809 30.1867 29.9957 29.0553 29.9957C24.5252 29.9957 19.9952 29.9957 15.4652 29.9957V30Z" fill="black"/>
  </g>
  <defs>
    <clipPath id="clip0_727_5593">
      <rect width="60.2857" height="30" fill="white" transform="translate(0.400391)"/>
    </clipPath>
  </defs>
</svg>
