<svg width="61" height="30" viewBox="0 0 61 30" fill="none"
  xmlns="http://www.w3.org/2000/svg">
  <g clip-path="url(#clip0_727_5591)">
    <path d="M15.3031 30C10.7731 30 6.24314 30 1.71316 30C0.602999 30 0.322266 29.7149 0.322266 28.5963C0.322266 24.5165 0.322266 20.4368 0.322266 16.3571C0.322266 15.285 0.615759 14.9957 1.68764 14.9957C10.2415 14.9957 18.7953 14.9957 27.3491 14.9957C29.3101 14.9957 30.3266 13.979 30.3309 12.0051C30.3309 8.43166 30.3309 4.8582 30.3309 1.28049C30.3309 0.336074 30.6541 0 31.5983 0C40.7392 0 49.8758 0 59.0163 0C59.9821 0 60.3223 0.353091 60.3223 1.32303C60.3223 5.441 60.3223 9.56326 60.3223 13.6812C60.3223 14.6937 60.0032 15.0128 58.9823 15.0128C50.3903 15.0128 41.7941 15.0128 33.2018 15.0128C31.3558 15.0128 30.3478 16.0125 30.3478 17.8417C30.3478 21.4152 30.3478 24.9887 30.3478 28.5664C30.3478 29.6809 30.0246 29.9957 28.8932 29.9957C24.3631 29.9957 19.8331 29.9957 15.3031 29.9957V30Z" fill="white"/>
  </g>
  <defs>
    <clipPath id="clip0_727_5591">
      <rect width="60.2857" height="30" fill="white" transform="translate(0.238281)"/>
    </clipPath>
  </defs>
</svg>
