<svg width="120" height="36" viewBox="0 0 120 36" fill="none"
  xmlns="http://www.w3.org/2000/svg">
  <g clip-path="url(#clip0_924_6584)">
    <path d="M114.66 0.719971H4.41C1.97442 0.719971 0 2.69439 0 5.12997V31.59C0 34.0255 1.97442 36 4.41 36H114.66C117.096 36 119.07 34.0255 119.07 31.59V5.12997C119.07 2.69439 117.096 0.719971 114.66 0.719971Z" fill="black"/>
    <path d="M114.66 1.42557C116.706 1.42557 118.364 3.08373 118.364 5.12997V31.59C118.364 33.6362 116.706 35.2944 114.66 35.2944H4.41C2.36376 35.2944 0.7056 33.6362 0.7056 31.59V5.12997C0.7056 3.08373 2.36376 1.42557 4.41 1.42557H114.66ZM114.66 0.719971H4.41C1.9845 0.719971 0 2.70447 0 5.12997V31.59C0 34.0155 1.9845 36 4.41 36H114.66C117.085 36 119.07 34.0155 119.07 31.59V5.12997C119.07 2.70447 117.085 0.719971 114.66 0.719971Z" fill="#A8B1BD"/>
    <path d="M41.824 9.75164C41.824 10.4925 41.6035 11.0835 41.1625 11.5156C40.6685 12.036 40.0159 12.3006 39.2221 12.3006C38.4283 12.3006 37.8109 12.036 37.2728 11.5068C36.7348 10.9776 36.4702 10.3161 36.4702 9.53996C36.4702 8.7638 36.7348 8.1023 37.2728 7.5731C37.8109 7.0439 38.4547 6.7793 39.2221 6.7793C39.6013 6.7793 39.9629 6.84986 40.3069 6.9998C40.6509 7.14974 40.9243 7.34378 41.136 7.59074L40.6685 8.0582C40.3157 7.64366 39.8395 7.43198 39.2221 7.43198C38.6664 7.43198 38.1813 7.62602 37.7756 8.02292C37.3699 8.411 37.167 8.92256 37.167 9.54878C37.167 10.175 37.3699 10.6866 37.7756 11.0746C38.1813 11.4627 38.6664 11.6656 39.2221 11.6656C39.813 11.6656 40.3069 11.4715 40.7038 11.0746C40.9596 10.8189 41.1095 10.4572 41.1448 9.9986H39.2221V9.36356H41.7887C41.8151 9.50468 41.824 9.63698 41.824 9.76046V9.75164Z" fill="white" stroke="white" stroke-width="0.1764" stroke-miterlimit="10"/>
    <path d="M45.8912 7.5466H43.4833V9.2224H45.6531V9.85744H43.4833V11.5332H45.8912V12.1859H42.8042V6.89392H45.8912V7.5466Z" fill="white" stroke="white" stroke-width="0.1764" stroke-miterlimit="10"/>
    <path d="M48.7571 12.1859H48.078V7.5466H46.5962V6.89392H50.23V7.5466H48.7483V12.1859H48.7571Z" fill="white" stroke="white" stroke-width="0.1764" stroke-miterlimit="10"/>
    <path d="M52.8677 12.1859V6.89392H53.5468V12.1859H52.8677Z" fill="white" stroke="white" stroke-width="0.1764" stroke-miterlimit="10"/>
    <path d="M56.5623 12.1859H55.8831V7.5466H54.4014V6.89392H58.0352V7.5466H56.5534V12.1859H56.5623Z" fill="white" stroke="white" stroke-width="0.1764" stroke-miterlimit="10"/>
    <path d="M64.924 11.498C64.4037 12.036 63.7598 12.3006 62.9837 12.3006C62.2075 12.3006 61.5636 12.036 61.0432 11.498C60.5229 10.96 60.2671 10.3073 60.2671 9.53996C60.2671 8.77262 60.5229 8.11112 61.0432 7.58192C61.5636 7.0439 62.2075 6.7793 62.9837 6.7793C63.7598 6.7793 64.3948 7.0439 64.924 7.58192C65.4444 8.11994 65.709 8.77262 65.709 9.53996C65.709 10.3073 65.4444 10.9688 64.9329 11.498H64.924ZM61.546 11.057C61.9341 11.4539 62.4192 11.6479 62.9837 11.6479C63.5481 11.6479 64.0332 11.4539 64.4213 11.057C64.8094 10.6601 65.0122 10.1574 65.0122 9.53996C65.0122 8.92256 64.8182 8.41982 64.4213 8.02292C64.0332 7.62602 63.5481 7.43198 62.9837 7.43198C62.4192 7.43198 61.9341 7.62602 61.546 8.02292C61.1579 8.41982 60.955 8.92256 60.955 9.53996C60.955 10.1574 61.1491 10.6601 61.546 11.057Z" fill="white" stroke="white" stroke-width="0.1764" stroke-miterlimit="10"/>
    <path d="M66.6621 12.1859V6.89392H67.4912L70.0666 11.0129H70.0931L70.0666 9.98974V6.89392H70.7458V12.1859H70.0402L67.3501 7.87294H67.3236L67.3501 8.89606V12.1947H66.6709L66.6621 12.1859Z" fill="white" stroke="white" stroke-width="0.1764" stroke-miterlimit="10"/>
    <path d="M60.099 19.9035C58.0263 19.9035 56.3328 21.4822 56.3328 23.652C56.3328 25.8217 58.0263 27.4005 60.099 27.4005C62.1717 27.4005 63.8651 25.8129 63.8651 23.652C63.8651 21.4911 62.1717 19.9035 60.099 19.9035ZM60.099 25.9275C58.9612 25.9275 57.9822 24.9926 57.9822 23.652C57.9822 22.3113 58.9612 21.3764 60.099 21.3764C61.2368 21.3764 62.2158 22.3025 62.2158 23.652C62.2158 25.0014 61.2368 25.9275 60.099 25.9275ZM51.8787 19.9035C49.806 19.9035 48.1126 21.4822 48.1126 23.652C48.1126 25.8217 49.806 27.4005 51.8787 27.4005C53.9514 27.4005 55.6449 25.8129 55.6449 23.652C55.6449 21.4911 53.9514 19.9035 51.8787 19.9035ZM51.8787 25.9275C50.741 25.9275 49.7619 24.9926 49.7619 23.652C49.7619 22.3113 50.741 21.3764 51.8787 21.3764C53.0165 21.3764 53.9955 22.3025 53.9955 23.652C53.9955 25.0014 53.0165 25.9275 51.8787 25.9275ZM42.1062 21.0589V22.6465H45.9164C45.8018 23.5373 45.5019 24.1988 45.0521 24.6486C44.4964 25.2043 43.632 25.8129 42.115 25.8129C39.7689 25.8129 37.9343 23.9254 37.9343 21.5793C37.9343 19.2331 39.7689 17.3457 42.115 17.3457C43.3763 17.3457 44.3024 17.8396 44.9815 18.4834L46.1016 17.3633C45.1491 16.4548 43.8878 15.7581 42.1062 15.7581C38.8957 15.7581 36.1968 18.3688 36.1968 21.5881C36.1968 24.8074 38.8957 27.4181 42.1062 27.4181C43.8437 27.4181 45.1491 26.8536 46.1722 25.7864C47.2218 24.7368 47.5481 23.2551 47.5481 22.0644C47.5481 21.6939 47.5217 21.3499 47.4599 21.0677H42.1062V21.0589ZM82.0696 22.2937C81.7609 21.4558 80.8083 19.9035 78.8591 19.9035C76.9099 19.9035 75.3223 21.4205 75.3223 23.652C75.3223 25.7511 76.9099 27.4005 79.0443 27.4005C80.7642 27.4005 81.7609 26.3509 82.1666 25.7423L80.8877 24.8868C80.4644 25.513 79.8822 25.9275 79.0443 25.9275C78.2064 25.9275 77.6067 25.5394 77.2274 24.7897L82.246 22.717L82.0784 22.2937H82.0696ZM76.954 23.5461C76.9099 22.0996 78.0741 21.3588 78.912 21.3588C79.5647 21.3588 80.1204 21.6851 80.3056 22.1526L76.954 23.5461ZM72.8792 27.18H74.5285V16.155H72.8792V27.18ZM70.1802 20.7414H70.1273C69.7569 20.3004 69.0513 19.9035 68.1516 19.9035C66.273 19.9035 64.5531 21.5528 64.5531 23.6696C64.5531 25.7864 66.273 27.4093 68.1516 27.4093C69.0513 27.4093 69.7569 27.0124 70.1273 26.5537H70.1802V27.0918C70.1802 28.5294 69.4129 29.2968 68.1781 29.2968C67.1726 29.2968 66.5464 28.5735 66.2906 27.9649L64.853 28.5647C65.2675 29.5614 66.3612 30.7785 68.1781 30.7785C70.1097 30.7785 71.7414 29.6407 71.7414 26.8713V20.1328H70.1802V20.7414ZM68.2839 25.9275C67.1462 25.9275 66.1936 24.975 66.1936 23.6696C66.1936 22.3642 67.1462 21.3852 68.2839 21.3852C69.4217 21.3852 70.2861 22.3554 70.2861 23.6696C70.2861 24.9838 69.4041 25.9275 68.2839 25.9275ZM89.7959 16.155H85.8534V27.18H87.5027V22.9993H89.8047C91.6305 22.9993 93.4209 21.6763 93.4209 19.5771C93.4209 17.478 91.6305 16.155 89.8047 16.155H89.7959ZM89.8312 21.4646H87.4939V17.6808H89.8312C91.066 17.6808 91.7628 18.7039 91.7628 19.5683C91.7628 20.4327 91.066 21.4558 89.8312 21.4558V21.4646ZM100.009 19.8858C98.8188 19.8858 97.584 20.415 97.0724 21.5704L98.5365 22.179C98.8452 21.5704 99.4274 21.3676 100.036 21.3676C100.883 21.3676 101.756 21.8791 101.765 22.7876V22.9023C101.465 22.7347 100.83 22.4789 100.045 22.4789C98.466 22.4789 96.8696 23.3433 96.8696 24.9573C96.8696 26.4303 98.1573 27.3828 99.6038 27.3828C100.706 27.3828 101.324 26.8889 101.703 26.3068H101.756V27.1623H103.343V22.9375C103.343 20.9795 101.879 19.8858 99.9918 19.8858H100.009ZM99.8066 25.9275C99.2686 25.9275 98.5189 25.6541 98.5189 24.9926C98.5189 24.1459 99.4538 23.8195 100.265 23.8195C100.988 23.8195 101.332 23.9783 101.765 24.19C101.641 25.2131 100.759 25.9363 99.8066 25.9363V25.9275ZM109.138 20.124L107.251 24.9044H107.198L105.24 20.124H103.467L106.404 26.8095L104.728 30.5227H106.448L110.973 20.124H109.147H109.138ZM94.3206 27.18H95.9699V16.155H94.3206V27.18Z" fill="white"/>
    <path d="M18.2751 17.8484L8.88184 27.815C9.1729 28.8999 10.1607 29.6937 11.3338 29.6937C11.8013 29.6937 12.2423 29.5702 12.6215 29.3409L12.648 29.3232L23.2143 23.2286L18.2663 17.8396L18.2751 17.8484Z" fill="#E82929"/>
    <path d="M27.7748 16.1549H27.766L23.206 13.5001L18.064 18.0777L23.2237 23.2374L27.766 20.6179C28.5598 20.1857 29.0978 19.3478 29.0978 18.3864C29.0978 17.425 28.5686 16.5871 27.7748 16.1638V16.1549Z" fill="#DDB21B"/>
    <path d="M8.88166 8.90491C8.82874 9.11659 8.79346 9.32827 8.79346 9.55759V27.1711C8.79346 27.4004 8.81992 27.6121 8.88166 27.8238L18.5925 18.113L8.88166 8.90491Z" fill="#4285F4"/>
    <path d="M18.3457 18.36L23.2055 13.5002L12.648 7.37908C12.2687 7.14976 11.8189 7.01746 11.3338 7.01746C10.1607 7.01746 9.1729 7.82008 8.88184 8.89612L18.3457 18.3512V18.36Z" fill="#20B05A"/>
  </g>
  <defs>
    <clipPath id="clip0_924_6584">
      <rect width="119.07" height="35.28" fill="white" transform="translate(0 0.719971)"/>
    </clipPath>
  </defs>
</svg>
