<svg width="32" height="32" viewBox="0 0 32 32" fill="none"
  xmlns="http://www.w3.org/2000/svg">
  <path d="M29.3335 16C30.8062 16 32.0226 14.798 31.7783 13.3458C31.3177 10.6074 30.1492 8.01985 28.3682 5.84971C26.0198 2.98827 22.752 1.0296 19.1214 0.307436C15.4909 -0.414727 11.7222 0.144298 8.45765 1.88926C5.19306 3.63422 2.6345 6.45715 1.21793 9.87706C-0.198646 13.297 -0.385588 17.1023 0.688954 20.6446C1.7635 24.1868 4.03304 27.247 7.11087 29.3035C10.1887 31.3601 13.8844 32.2858 17.5683 31.923C20.3621 31.6478 23.0181 30.6444 25.2801 29.0338C26.4798 28.1797 26.4695 26.4696 25.4282 25.4282C24.3869 24.3869 22.7089 24.4229 21.4424 25.1743C20.109 25.9652 18.6097 26.4616 17.0456 26.6157C14.5896 26.8576 12.1257 26.2404 10.0737 24.8693C8.02173 23.4983 6.50865 21.4581 5.79226 19.0965C5.07587 16.7349 5.2005 14.1979 6.14492 11.9179C7.08934 9.63787 8.79511 7.75584 10.9716 6.59249C13.1481 5.42914 15.6606 5.05644 18.081 5.5379C20.5015 6.01936 22.6801 7.32519 24.2458 9.23289C25.2428 10.4478 25.952 11.859 26.3355 13.3612C26.6998 14.788 27.8609 16 29.3335 16Z" fill="#83A1F1"/>
</svg>
