<svg width="83" height="19" viewBox="0 0 83 19" fill="none" xmlns="http://www.w3.org/2000/svg">
<path d="M13.1807 18.7268H1.88781C1.44256 18.7268 1.0805 18.3691 1.0805 17.9272V15.1116C1.0805 14.6706 1.44162 14.312 1.88781 14.312H13.0455C14.1799 14.312 14.8284 13.6968 14.8284 12.9206C14.8284 12.1443 14.1799 11.5029 13.0455 11.5029H6.4282C2.32266 11.5029 0 9.01509 0 5.80438C0 2.59366 2.7282 0 6.4282 0H18.1805C18.6257 0 18.9878 0.357682 18.9878 0.799635V3.61521C18.9878 4.05623 18.6267 4.41485 18.1805 4.41485H6.64468C5.34864 4.41485 4.80792 5.16392 4.80792 5.80625C4.80792 6.44858 5.429 7.11713 6.64468 7.11713H13.019C16.8542 7.11713 19.6363 9.3915 19.6363 12.9224C19.6363 16.106 17.1784 18.7277 13.1807 18.7277V18.7268Z" fill="black"/>
<path d="M58.7965 0H74.7924C75.2376 0 75.5997 0.357682 75.5997 0.799635V3.61521C75.5997 4.05623 75.2385 4.41485 74.7924 4.41485H63.7122C63.267 4.41485 62.9049 4.77253 62.9049 5.21448V6.3718C62.9049 6.81281 63.266 7.17143 63.7122 7.17143H74.4416C74.8869 7.17143 75.249 7.52911 75.249 7.97107V10.7595C75.249 11.2005 74.8878 11.5591 74.4416 11.5591H63.7122C63.267 11.5591 62.9049 11.9168 62.9049 12.3588V17.93C62.9049 18.371 62.5438 18.7296 62.0976 18.7296H58.7956C58.3503 18.7296 57.9883 18.3719 57.9883 17.93V0.799635C57.9883 0.358618 58.3494 0 58.7956 0H58.7965Z" fill="black"/>
<path d="M39.9978 0H43.2998C43.745 0 44.1071 0.357682 44.1071 0.799635V13.5133C44.1071 13.9543 44.4682 14.3129 44.9144 14.3129H55.779C56.2243 14.3129 56.5863 14.6706 56.5863 15.1125V17.9281C56.5863 18.3691 56.2252 18.7277 55.779 18.7277H39.9987C39.5535 18.7277 39.1914 18.3701 39.1914 17.9281V0.799635C39.1905 0.357682 39.5516 0 39.9978 0Z" fill="black"/>
<path d="M21.5495 0H36.9781C37.4234 0 37.7854 0.357682 37.7854 0.799635V3.61521C37.7854 4.05623 37.4243 4.41485 36.9781 4.41485H26.4113C25.966 4.41485 25.604 4.77253 25.604 5.21448V6.3718C25.604 6.81281 25.9651 7.17143 26.4113 7.17143H36.0063C36.4516 7.17143 36.8136 7.52911 36.8136 7.97107V10.7595C36.8136 11.2005 36.4525 11.5591 36.0063 11.5591H26.4113C25.966 11.5591 25.604 11.9168 25.604 12.3588V13.5161C25.604 13.9571 25.9651 14.3157 26.4113 14.3157H36.8704C37.3156 14.3157 37.6777 14.6734 37.6777 15.1153V17.9309C37.6777 18.3719 37.3165 18.7306 36.8704 18.7306H21.5495C21.1042 18.7306 20.7422 18.3729 20.7422 17.9309V0.799635C20.7422 0.357682 21.1033 0 21.5495 0Z" fill="black"/>
<path d="M79.912 4.32C78.6984 4.32 77.7598 3.38132 77.7598 2.15741C77.7598 0.938679 78.6984 0 79.912 0C81.1411 0 82.0798 0.938679 82.0798 2.15741C82.0798 3.38132 81.1411 4.32 79.912 4.32ZM79.912 4.00365C80.9596 4.00365 81.7634 3.19981 81.7634 2.15741C81.7634 1.10463 80.9596 0.300792 79.912 0.300792C78.8644 0.300792 78.0606 1.10982 78.0606 2.15741C78.0606 3.19981 78.8644 4.00365 79.912 4.00365ZM79.1341 3.33465C79.103 3.33465 79.0822 3.3139 79.0822 3.28279V1.0424C79.0822 1.01128 79.103 0.99054 79.1341 0.99054H80.1609C80.5551 0.99054 80.8507 1.29133 80.8507 1.69585C80.8507 1.95515 80.7262 2.15741 80.5239 2.27669C80.498 2.29743 80.4928 2.31818 80.5032 2.34929L80.8922 3.27241C80.9077 3.30872 80.887 3.33465 80.8507 3.33465H80.4513C80.4254 3.33465 80.4047 3.32427 80.3943 3.29316L80.0468 2.41152C80.0365 2.38041 80.0157 2.37004 79.9898 2.37004H79.6008C79.5697 2.37004 79.549 2.39078 79.549 2.4219V3.28279C79.549 3.3139 79.5282 3.33465 79.4971 3.33465H79.1341ZM80.0572 1.97589C80.2698 1.97589 80.3839 1.85661 80.3839 1.69585C80.3839 1.51433 80.2646 1.40024 80.0572 1.40024H79.6008C79.5697 1.40024 79.549 1.42098 79.549 1.4521V1.92403C79.549 1.95515 79.5697 1.97589 79.6008 1.97589H80.0572Z" fill="black"/>
</svg>
