<svg width="57" height="14" viewBox="0 0 57 14" fill="none"
  xmlns="http://www.w3.org/2000/svg">
  <path d="M9.88845 13.8717H1.52338C1.19357 13.8717 0.925374 13.6068 0.925374 13.2794V11.1938C0.925374 10.8671 1.19287 10.6015 1.52338 10.6015H9.78831C10.6286 10.6015 11.109 10.1458 11.109 9.57079C11.109 8.99581 10.6286 8.5207 9.78831 8.5207H4.88663C1.84549 8.5207 0.125 6.67784 0.125 4.29954C0.125 1.92123 2.14589 0 4.88663 0H13.592C13.9218 0 14.19 0.26495 14.19 0.592322V2.67793C14.19 3.00461 13.9225 3.27026 13.592 3.27026H5.04699C4.08696 3.27026 3.68642 3.82512 3.68642 4.30092C3.68642 4.77672 4.14648 5.27194 5.04699 5.27194H9.7687C12.6096 5.27194 14.6704 6.95666 14.6704 9.57218C14.6704 11.9304 12.8498 13.8724 9.88845 13.8724V13.8717Z" fill="white"/>
  <path d="M43.6788 0H55.5275C55.8574 0 56.1255 0.26495 56.1255 0.592322V2.67793C56.1255 3.00461 55.8581 3.27026 55.5275 3.27026H47.32C46.9902 3.27026 46.722 3.53521 46.722 3.86258V4.71985C46.722 5.04653 46.9895 5.31217 47.32 5.31217H55.2678C55.5976 5.31217 55.8658 5.57712 55.8658 5.90449V7.96999C55.8658 8.29667 55.5983 8.56231 55.2678 8.56231H47.32C46.9902 8.56231 46.722 8.82726 46.722 9.15464V13.2815C46.722 13.6081 46.4545 13.8738 46.124 13.8738H43.6781C43.3483 13.8738 43.0801 13.6088 43.0801 13.2815V0.592322C43.0801 0.265643 43.3476 0 43.6781 0H43.6788Z" fill="white"/>
  <path d="M29.7536 0H32.1995C32.5293 0 32.7975 0.26495 32.7975 0.592322V10.0098C32.7975 10.3365 33.065 10.6021 33.3955 10.6021H41.4434C41.7732 10.6021 42.0414 10.8671 42.0414 11.1945V13.2801C42.0414 13.6068 41.7739 13.8724 41.4434 13.8724H29.7543C29.4244 13.8724 29.1563 13.6075 29.1563 13.2801V0.592322C29.1556 0.26495 29.423 0 29.7536 0Z" fill="white"/>
  <path d="M16.0882 0H27.5169C27.8467 0 28.1149 0.26495 28.1149 0.592322V2.67793C28.1149 3.00461 27.8474 3.27026 27.5169 3.27026H19.6896C19.3598 3.27026 19.0916 3.53521 19.0916 3.86258V4.71985C19.0916 5.04653 19.3591 5.31217 19.6896 5.31217H26.797C27.1268 5.31217 27.395 5.57712 27.395 5.90449V7.96999C27.395 8.29667 27.1275 8.56231 26.797 8.56231H19.6896C19.3598 8.56231 19.0916 8.82726 19.0916 9.15464V10.0119C19.0916 10.3386 19.3591 10.6042 19.6896 10.6042H27.437C27.7668 10.6042 28.035 10.8692 28.035 11.1966V13.2822C28.035 13.6088 27.7675 13.8745 27.437 13.8745H16.0882C15.7584 13.8745 15.4902 13.6095 15.4902 13.2822V0.592322C15.4902 0.26495 15.7577 0 16.0882 0Z" fill="white"/>
</svg>
