<svg width="70" height="14" viewBox="0 0 70 14" fill="none"
  xmlns="http://www.w3.org/2000/svg">
  <path d="M10.3884 13.8717H2.02338C1.69357 13.8717 1.42537 13.6068 1.42537 13.2794V11.1938C1.42537 10.8671 1.69287 10.6015 2.02338 10.6015H10.2883C11.1286 10.6015 11.609 10.1458 11.609 9.57079C11.609 8.99581 11.1286 8.5207 10.2883 8.5207H5.38663C2.34549 8.5207 0.625 6.67784 0.625 4.29954C0.625 1.92123 2.64589 0 5.38663 0H14.092C14.4218 0 14.69 0.26495 14.69 0.592322V2.67793C14.69 3.00461 14.4225 3.27026 14.092 3.27026H5.54699C4.58696 3.27026 4.18642 3.82512 4.18642 4.30092C4.18642 4.77672 4.64648 5.27194 5.54699 5.27194H10.2687C13.1096 5.27194 15.1704 6.95666 15.1704 9.57218C15.1704 11.9304 13.3498 13.8724 10.3884 13.8724V13.8717Z" fill="white"/>
  <path d="M44.1788 0H56.0275C56.3574 0 56.6255 0.26495 56.6255 0.592322V2.67793C56.6255 3.00461 56.3581 3.27026 56.0275 3.27026H47.82C47.4902 3.27026 47.222 3.53521 47.222 3.86258V4.71985C47.222 5.04653 47.4895 5.31217 47.82 5.31217H55.7678C56.0976 5.31217 56.3658 5.57712 56.3658 5.90449V7.96999C56.3658 8.29667 56.0983 8.56231 55.7678 8.56231H47.82C47.4902 8.56231 47.222 8.82726 47.222 9.15464V13.2815C47.222 13.6081 46.9545 13.8738 46.624 13.8738H44.1781C43.8483 13.8738 43.5801 13.6088 43.5801 13.2815V0.592322C43.5801 0.265643 43.8476 0 44.1781 0H44.1788Z" fill="white"/>
  <path d="M30.2536 0H32.6995C33.0293 0 33.2975 0.26495 33.2975 0.592322V10.0098C33.2975 10.3365 33.565 10.6021 33.8955 10.6021H41.9434C42.2732 10.6021 42.5414 10.8671 42.5414 11.1945V13.2801C42.5414 13.6068 42.2739 13.8724 41.9434 13.8724H30.2543C29.9244 13.8724 29.6563 13.6075 29.6563 13.2801V0.592322C29.6556 0.26495 29.923 0 30.2536 0Z" fill="white"/>
  <path d="M16.5882 0H28.0169C28.3467 0 28.6149 0.26495 28.6149 0.592322V2.67793C28.6149 3.00461 28.3474 3.27026 28.0169 3.27026H20.1896C19.8598 3.27026 19.5916 3.53521 19.5916 3.86258V4.71985C19.5916 5.04653 19.8591 5.31217 20.1896 5.31217H27.297C27.6268 5.31217 27.895 5.57712 27.895 5.90449V7.96999C27.895 8.29667 27.6275 8.56231 27.297 8.56231H20.1896C19.8598 8.56231 19.5916 8.82726 19.5916 9.15464V10.0119C19.5916 10.3386 19.8591 10.6042 20.1896 10.6042H27.937C28.2668 10.6042 28.535 10.8692 28.535 11.1966V13.2822C28.535 13.6088 28.2675 13.8745 27.937 13.8745H16.5882C16.2584 13.8745 15.9902 13.6095 15.9902 13.2822V0.592322C15.9902 0.26495 16.2577 0 16.5882 0Z" fill="white"/>
  <path d="M64.0298 5.39308C64.0072 5.39308 63.9922 5.37804 63.9922 5.35547V0.0376086C63.9922 0.0150435 64.0072 0 64.0298 0H65.5116C65.5304 0 65.5492 0.00752173 65.5567 0.0300869L66.779 3.49008C66.7903 3.52017 66.8204 3.52017 66.8316 3.49008L68.0614 0.0300869C68.069 0.00752173 68.0878 0 68.1066 0H69.5884C69.6109 0 69.626 0.0150435 69.626 0.0376086V5.35547C69.626 5.37804 69.6109 5.39308 69.5884 5.39308H68.6331C68.6105 5.39308 68.5955 5.37804 68.5955 5.35547V1.32759C68.5955 1.29374 68.5654 1.28622 68.5541 1.32006L67.1024 5.36299C67.0949 5.38556 67.0761 5.39308 67.0573 5.39308H66.5571C66.5383 5.39308 66.5195 5.38556 66.512 5.36299L65.064 1.32006C65.0528 1.28622 65.0227 1.29374 65.0227 1.32759V5.35547C65.0227 5.37804 65.0076 5.39308 64.9851 5.39308H64.0298Z" fill="white"/>
  <path d="M60.994 5.39308C60.9714 5.39308 60.9563 5.37804 60.9563 5.35547V0.943977C60.9563 0.921412 60.9413 0.906368 60.9187 0.906368H59.6626C59.64 0.906368 59.625 0.891325 59.625 0.86876V0.0376086C59.625 0.0150435 59.64 0 59.6626 0H63.273C63.2956 0 63.3106 0.0150435 63.3106 0.0376086V0.86876C63.3106 0.891325 63.2956 0.906368 63.273 0.906368H62.0244C62.0019 0.906368 61.9868 0.921412 61.9868 0.943977V5.35547C61.9868 5.37804 61.9718 5.39308 61.9492 5.39308H60.994Z" fill="white"/>
</svg>
