<svg width="70" height="14" viewBox="0 0 70 14" fill="none"
  xmlns="http://www.w3.org/2000/svg">
  <path d="M10.5134 13.8717H2.14838C1.81857 13.8717 1.55037 13.6068 1.55037 13.2794V11.1938C1.55037 10.8671 1.81787 10.6015 2.14838 10.6015H10.4133C11.2536 10.6015 11.734 10.1458 11.734 9.57079C11.734 8.99581 11.2536 8.5207 10.4133 8.5207H5.51163C2.47049 8.5207 0.75 6.67784 0.75 4.29954C0.75 1.92123 2.77089 0 5.51163 0H14.217C14.5468 0 14.815 0.26495 14.815 0.592322V2.67793C14.815 3.00461 14.5475 3.27026 14.217 3.27026H5.67199C4.71196 3.27026 4.31142 3.82512 4.31142 4.30092C4.31142 4.77672 4.77148 5.27194 5.67199 5.27194H10.3937C13.2346 5.27194 15.2954 6.95666 15.2954 9.57218C15.2954 11.9304 13.4748 13.8724 10.5134 13.8724V13.8717Z" fill="black"/>
  <path d="M44.3038 0H56.1525C56.4824 0 56.7505 0.26495 56.7505 0.592322V2.67793C56.7505 3.00461 56.4831 3.27026 56.1525 3.27026H47.945C47.6152 3.27026 47.347 3.53521 47.347 3.86258V4.71985C47.347 5.04653 47.6145 5.31217 47.945 5.31217H55.8928C56.2226 5.31217 56.4908 5.57712 56.4908 5.90449V7.96999C56.4908 8.29667 56.2233 8.56231 55.8928 8.56231H47.945C47.6152 8.56231 47.347 8.82726 47.347 9.15464V13.2815C47.347 13.6081 47.0795 13.8738 46.749 13.8738H44.3031C43.9733 13.8738 43.7051 13.6088 43.7051 13.2815V0.592322C43.7051 0.265643 43.9726 0 44.3031 0H44.3038Z" fill="black"/>
  <path d="M30.3786 0H32.8245C33.1543 0 33.4225 0.26495 33.4225 0.592322V10.0098C33.4225 10.3365 33.69 10.6021 34.0205 10.6021H42.0684C42.3982 10.6021 42.6664 10.8671 42.6664 11.1945V13.2801C42.6664 13.6068 42.3989 13.8724 42.0684 13.8724H30.3793C30.0494 13.8724 29.7813 13.6075 29.7813 13.2801V0.592322C29.7806 0.26495 30.048 0 30.3786 0Z" fill="black"/>
  <path d="M16.7132 0H28.1419C28.4717 0 28.7399 0.26495 28.7399 0.592322V2.67793C28.7399 3.00461 28.4724 3.27026 28.1419 3.27026H20.3146C19.9848 3.27026 19.7166 3.53521 19.7166 3.86258V4.71985C19.7166 5.04653 19.9841 5.31217 20.3146 5.31217H27.422C27.7518 5.31217 28.02 5.57712 28.02 5.90449V7.96999C28.02 8.29667 27.7525 8.56231 27.422 8.56231H20.3146C19.9848 8.56231 19.7166 8.82726 19.7166 9.15464V10.0119C19.7166 10.3386 19.9841 10.6042 20.3146 10.6042H28.062C28.3918 10.6042 28.66 10.8692 28.66 11.1966V13.2822C28.66 13.6088 28.3925 13.8745 28.062 13.8745H16.7132C16.3834 13.8745 16.1152 13.6095 16.1152 13.2822V0.592322C16.1152 0.26495 16.3827 0 16.7132 0Z" fill="black"/>
  <path d="M64.1548 5.39308C64.1322 5.39308 64.1172 5.37804 64.1172 5.35547V0.0376086C64.1172 0.0150435 64.1322 0 64.1548 0H65.6366C65.6554 0 65.6742 0.00752173 65.6817 0.0300869L66.904 3.49008C66.9153 3.52017 66.9454 3.52017 66.9566 3.49008L68.1864 0.0300869C68.194 0.00752173 68.2128 0 68.2316 0H69.7134C69.7359 0 69.751 0.0150435 69.751 0.0376086V5.35547C69.751 5.37804 69.7359 5.39308 69.7134 5.39308H68.7581C68.7355 5.39308 68.7205 5.37804 68.7205 5.35547V1.32759C68.7205 1.29374 68.6904 1.28622 68.6791 1.32006L67.2274 5.36299C67.2199 5.38556 67.2011 5.39308 67.1823 5.39308H66.6821C66.6633 5.39308 66.6445 5.38556 66.637 5.36299L65.189 1.32006C65.1778 1.28622 65.1477 1.29374 65.1477 1.32759V5.35547C65.1477 5.37804 65.1326 5.39308 65.1101 5.39308H64.1548Z" fill="black"/>
  <path d="M61.119 5.39308C61.0964 5.39308 61.0813 5.37804 61.0813 5.35547V0.943977C61.0813 0.921412 61.0663 0.906368 61.0437 0.906368H59.7876C59.765 0.906368 59.75 0.891325 59.75 0.86876V0.0376086C59.75 0.0150435 59.765 0 59.7876 0H63.398C63.4206 0 63.4356 0.0150435 63.4356 0.0376086V0.86876C63.4356 0.891325 63.4206 0.906368 63.398 0.906368H62.1494C62.1269 0.906368 62.1118 0.921412 62.1118 0.943977V5.35547C62.1118 5.37804 62.0968 5.39308 62.0742 5.39308H61.119Z" fill="black"/>
</svg>
